<svg xmlns="http://www.w3.org/2000/svg" viewBox="0 0 512 512" role="img" aria-label="ProCity">
  <defs>
    <linearGradient id="gold" x1="0" y1="0" x2="1" y2="1"><stop stop-color="#ffd337"/><stop offset="1" stop-color="#ffb512"/></linearGradient>
    <linearGradient id="green" x1="0" y1="0" x2="1" y2="1"><stop stop-color="#08c96a"/><stop offset="1" stop-color="#05ad55"/></linearGradient>
  </defs>
  <path fill="url(#gold)" d="M52 455V191c0-42 20-78 55-100L241 8c25-15 57-15 82 0l88 53-208 127c-20 12-32 34-32 57v210H52z"/>
  <path fill="url(#green)" d="M442 155c-9-30-29-57-57-74l-50-30-94 57 55 33c31 19 50 52 50 88v91c0 30-24 54-54 54H210v81h142c53 0 96-43 96-96V200c0-15-2-30-6-45z"/>
</svg>
